<svg width="40" height="40" viewBox="0 0 40 40" fill="none" xmlns="http://www.w3.org/2000/svg">
<circle cx="20" cy="20" r="20" fill="#15C5CE"/>
<path d="M7.03496 12.5191C6.57781 12.8365 6.34766 13.3381 6.34766 14.027C6.34766 14.7127 6.66512 15.173 7.30321 15.4064H10.2762C10.4159 15.4064 10.4858 15.4746 10.4858 15.6095V24.7206C10.4858 24.9667 10.5889 25.0905 10.7969 25.0905H13.008C13.235 25.0905 13.3492 24.9667 13.3492 24.7206V15.6095C13.3492 15.4746 13.4143 15.4064 13.5461 15.4064H16.2381C16.4238 15.4064 16.5175 15.2952 16.5175 15.0762V13.446C16.5175 13.2619 16.4238 13.1698 16.2381 13.1698H7.45401C7.3991 13.1681 7.34599 13.1499 7.30162 13.1175C7.22226 13.0667 7.22226 12.8206 7.22226 12.5191C7.22226 12.4714 7.16035 12.4714 7.03337 12.5191H7.03496Z" fill="white"/>
<path fill-rule="evenodd" clip-rule="evenodd" d="M17.7776 15.8698C18.5792 15.7317 20.0141 15.7841 20.2379 15.8698C20.273 15.8832 20.307 15.8966 20.3395 15.9093C20.5153 15.9785 20.6443 16.0293 20.6443 15.9555V15.7317C20.6443 15.5841 20.7173 15.5286 20.8554 15.5286H23.2839C23.4268 15.5286 23.4966 15.5968 23.495 15.7317L23.5395 23.4762C23.5395 23.6381 23.8046 23.9714 24.33 24.2206C24.4697 24.2889 24.4697 24.3889 24.33 24.5222C23.8316 24.9921 23.2427 25.227 22.5649 25.227C21.1317 25.1968 20.7908 24.1135 20.6817 23.7668C20.6646 23.7126 20.6533 23.6764 20.6443 23.6651C20.5998 23.6079 20.549 23.6079 20.4919 23.6651C20.0585 24.5921 19.3696 25.0667 18.422 25.0905C18.1173 25.0905 14.7871 25.0698 14.7871 20.3873C14.7871 17.0555 16.9744 16.0079 17.7776 15.8698ZM19.9998 22.7143C20.2284 22.5841 20.6443 22.1238 20.6443 21.854V17.6095C20.6379 17.4397 20.2506 17.3555 19.4887 17.3555C18.1173 17.3555 17.1395 18.5873 17.1601 20.1508C17.1919 22.7 18.7379 22.9508 18.8966 22.9508C18.9042 22.9508 18.9162 22.9515 18.9323 22.9525C19.0714 22.9612 19.5133 22.9888 19.9998 22.7143Z" fill="white"/>
<path fill-rule="evenodd" clip-rule="evenodd" d="M24.1467 15.4868C24.0545 15.4567 23.984 15.4336 23.9586 15.4032C23.8554 15.2762 24.2427 14.5048 25.6713 14.5048C26.7985 14.5048 27.2667 15.4941 27.5293 16.0491C27.6317 16.2655 27.7029 16.4159 27.7697 16.4159C27.8353 16.4159 27.9059 16.3378 28.0078 16.2251C28.273 15.9317 28.7508 15.4032 29.9078 15.4032C31.5094 15.4032 33.6522 16.8905 33.6522 20.2921C33.6522 23.6936 31.3062 25.0857 29.9094 25.0857C28.6812 25.0857 28.2495 24.5765 28.0994 24.3995C28.0788 24.3752 28.0635 24.3572 28.0522 24.3476C27.9601 24.2683 27.776 24.2683 27.776 24.5063V28.0762C27.776 28.4143 27.5506 28.4143 27.2363 28.4143H25.2681C24.9332 28.4143 24.9332 28.1444 24.9332 28.0762V16.4159C24.9332 15.7439 24.4343 15.5808 24.1467 15.4868ZM29.2538 17.6111C28.3522 17.6111 27.7681 18.1825 27.7681 18.4603H27.7697V22.0762C27.7697 22.3603 28.476 22.8333 29.2538 22.8333C30.0332 22.8333 31.1474 21.8508 31.1474 20.1556C31.1474 18.4603 30.1554 17.6111 29.2538 17.6111Z" fill="white"/>
</svg>
